<svg xmlns="http://www.w3.org/2000/svg" width="1770" height="450" viewBox="0 0 1770 450"><g transform="translate(60 -450)"><path d="M957,450,539,900h857Z" fill="#43e97b"/><path d="M957,450,872.9,900H1396Z" fill="#38f9d7"/><path d="M-60,900,398,662,816,900Z" fill="#41ec92"/><path d="M337,900l61-238L816,900Z" fill="#3be1c3"/><path d="M1203,546l349,354H876Z" fill="#3ff0a6"/><path d="M1203,546l349,354H1162Z" fill="#3ec6ac"/><path d="M641,695,886,900H367Z" fill="#3df3b8"/><path d="M587,900l54-205L886,900Z" fill="#41a692"/><path d="M1710,900,1401,632,1096,900Z" fill="#3af6c8"/><path d="M1710,900,1401,632l-36,268Z" fill="#447f72"/><path d="M1210,900,971,687,725,900Z" fill="#38f9d7"/><path d="M943,900h267L971,687Z" fill="#474545"/></g></svg>