<svg xmlns="http://www.w3.org/2000/svg" width="337.087" height="690.509" viewBox="0 0 337.087 690.509"><g transform="translate(-2340.729 -2930.242)"><g transform="translate(1638.496 2784.021)"><path d="M776.25,838c28.71,12.49,63.74,4.89,96.32,5.77,4.45.12,9.18.49,12.75,2.65s5.34,5.65,7.79,8.65c9.13,11.14,27.84,14.72,44.19,12.83s31.34-8.15,46.77-12.91c26.67-8.24,57.15-12,83.46-3,2.41.82,5,1.77,7.54,1.44,5.77-.73,7.49-6.71,11.52-10.12,7.28-6.17,23.1-4.49,26.3-12.62,1.87-4.76-2.44-9.64-7.14-12.89-18-12.44-43.7-14.49-67.23-12.57s-46.66,7.21-70.31,7.23c-29.47,0-57.94-8.12-87.12-11.45-20.21-2.3-42.27-2-61.22,4.77C799.33,813.1,794.81,829.59,776.25,838Z" transform="translate(-74.016 -31.65)" fill="#4285f4" opacity="0.1"/><path d="M1049,304.15c-23.77-13.67-32.75-17.06-32.8-17.08l-.48-.35a19.86,19.86,0,0,1-6-7.57c0-.55,0-1.09,0-1.63v.16c.38-7.24,5.53-13.83,10.42-19.58l12.49-14.7a14.269,14.269,0,0,0,3.22-5.1,11.39,11.39,0,0,0,.34-3.13v-1.28c-.06-3.65-.17-7.31-.3-11-.12-3.19-.94-7.21-4.13-7.87-1.66-.34-3.85.26-4.73-1.17a2.72,2.72,0,0,1-.21-1.89.81.81,0,0,0,0,.15v-.18a42.366,42.366,0,0,0,1.19-7.51,10.439,10.439,0,0,0-.52-3.8c-1.85-5.3-8.21-7.47-13.84-8.47s-11.93-1.86-15.46-6.26c-1.09-1.36-1.83-3-3.07-4.23a12.19,12.19,0,0,0-5.75-2.84,32.49,32.49,0,0,0-20.92,1.82c-2.72,1.21-5.45,2.85-8.43,2.67s-5.75-2.33-8.81-2.85c-4.94-.84-9.67,2.79-12.1,7.08a17.29,17.29,0,0,0-2.24,8.36c0,.16,0,.33,0,.49h0a12.19,12.19,0,0,0,3.21,8.53c2.13,2.21,5.31,3.73,6.19,6.64.36,1.18.27,2.46.59,3.66a1.412,1.412,0,0,0,.14.44l-.16.21A37.05,37.05,0,0,0,939,238.75a37.9,37.9,0,0,0,26.63,35.94c0,.37,0,.75,0,1.12,0,4.54-1.29,9.17-5.17,12.58L926.8,301.93s-20.29-2.41-27.61,27.25a50.12,50.12,0,0,0-1.26,15.05c.27,4.47-.35,12.35-5.55,22.54-8.33,16.3-6.43,53.72,10.59,57.43,16.07,3.5,22.36,2,23,1.87v.65c-.26,7-2.81,67.59-12.08,74.92-2.56,2-2.08,3.4,0,4.32,0,0,0,.39-.06,1.09-.28,4.43-1.71,21.3-7.91,30.9-7.19,11.11-6.44,75.22-6.44,75.22L894.65,651s3,23.34,0,27.42c-2.7,3.63-6.3,90-7,108.71h-.32a9.09,9.09,0,0,0-7.27,4.43c-4,6.46-17.9,18.39-17.9,18.39-3,4.29-14.19,8.39-20.1,10.33a12.188,12.188,0,0,0-2.28,1,12,12,0,0,0-5.07,5.34,5.78,5.78,0,0,0-.55,4.46c1.52,3.7,32.92,6.29,40.86,2.59,6.25-2.92,31-6.75,41.27-8.25a8.49,8.49,0,0,0,7.35-7.34,4.85,4.85,0,0,0-1-3.68h0c-2-2.44-3-9.09-3.43-13.43.835-.337-.7-2.771,0-3.343-.843-13.462,3.4-24.981,7.98-37.667,7.57-20,9.84-57.07,8-81.15,0,0,23.08-99.3,41.24-108.57h0c.28.35,9.09,11.67,10.21,46.68,1.14,35.57,14,58.91,14,58.91s-5.68,60.4,0,83l-7.43,35.66c-.54-.47-.89-.83-.89-.83s.22,1,.53,2.58l-.16.75.32.08c.84,4.46,2.09,12.23,1.58,16.79-.3,2.59-1,6.15-1.52,9.64-.78,5.49-1,10.81,1.89,12,4.73,1.9,32.54,4.5,37.27-1.61a8.78,8.78,0,0,0,1.38-9.16,9.347,9.347,0,0,0-1.38-2.33s-7.38-12.07-5.3-20.58a6.22,6.22,0,0,0-.88-4.89c.32-4.18,2-23.51,6.37-39.93,4.73-17.83,14.72-56.92,7.37-82.63h0c-.28-1-.6-2-.94-3a110.778,110.778,0,0,1-4.16-43.35,88.3,88.3,0,0,1,0-37.8c4.54-20.75,7.71-41.13,7.71-41.13s2.51-27.41.32-44.22l-.15-1.08,1.2-.27s-6.43-28.53-8.7-46.68c-.54-4.29-1.24-9.72-2-15.52a37.615,37.615,0,0,0,6.17-1.53C1059.6,432.72,1066,369,1066,369V348.8S1072.84,317.86,1049,304.15ZM896.8,796.22c-.63-.32-1-.53-1-.53h0Z" transform="translate(-74.016 -31.65)" fill="rgba(128,128,128,0.25)"/><path d="M207.577,591.818s-.553,5.082-1.35,9.941c-.714,4.35-2.168,8.5-1.285,9.678,1.752,2.336-31.59-7.341-31.59-7.341s.441-3.017,1.039-6.729c.113-.7.484-2.174.858-4.066a30.069,30.069,0,0,1,1-4.379C176.235,588.635,207.577,591.818,207.577,591.818Z" transform="translate(745.73 161.094)" fill="#efb7b9"/><path d="M1036.67,671.91c8.86,25.48-.643,67.564-5.443,86.024s-3.873,26.61-3.873,26.61c-18.83,2.95-31.348-2.963-31.348-2.963l3.365-22.5c-5.54-22.52,0-82.71,0-82.71s-12.55-23.26-13.66-58.71c-1.09-34.9-9.69-46.17-10-46.52h0c-17.72,9.23-40.25,108.2-40.25,108.2,1.85,24-.37,60.92-7.75,80.86-4.476,12.666-.806-1.471-4.646,17.159-2.58,2.18-7.961-.774-11.841-1.394-10.51-1.75-22.656-4.973-22.656-4.973S893,683,896,678.93s0-27.33,0-27.33l4.79-37.66s-.73-63.89,6.28-75c6.06-9.57,7.45-26.38,7.72-30.79a7.956,7.956,0,0,1,.06-1.09l10.68-12.8s103.4-7.75,111.15,0c1.91,1.91,3.08,6.23,3.78,11.68,2.13,16.75-.31,44.07-.31,44.07s-3.1,20.31-7.53,41a89.589,89.589,0,0,0,0,37.66,112.533,112.533,0,0,0,4.05,43.24Z" transform="translate(-74.016 -31.65)" fill="#444053"/><path d="M1030.21,833.83c-4.62,6.09-31.76,3.5-36.38,1.61-2.82-1.17-2.6-6.47-1.84-11.94.48-3.48,1.19-7,1.48-9.61.74-6.65-2.22-20.13-2.22-20.13s6.1,6.46,7.57,0c.65-2.82,2.92-4.27,5.27-5a13.849,13.849,0,0,1,9.59.6c4.79,2.08,12.8,6.52,11.36,12.52-2,8.48,5.17,20.51,5.17,20.51a9.367,9.367,0,0,1,1.34,2.32A8.88,8.88,0,0,1,1030.21,833.83Z" transform="translate(-74.016 -31.65)" fill="#a27772"/><path d="M1030.21,833.83c-4.62,6.09-31.76,3.5-36.38,1.61-2.82-1.17-2.6-6.47-1.84-11.94,2.91,1.36,7.87,2.5,16.13,1.73a46.941,46.941,0,0,1,5.81-.18,134.049,134.049,0,0,0,17.62-.35,8.88,8.88,0,0,1-1.34,9.13Z" transform="translate(-74.016 -31.65)" opacity="0.1"/><path d="M935.49,679.3c1.85,24-.37,60.92-7.75,80.86-4.476,12.666-8.915,24.276-8.095,37.684-2.58,2.18-3.615,4.376-7.495,3.756,2.23-15.6,11.72-82.68,17.85-135.69C936.88,605.54,969.28,564,969.28,564l6.46,7.11C958,580.33,935.49,679.3,935.49,679.3Z" transform="translate(-74.016 -31.65)" opacity="0.1"/><path d="M1019.13,291.21l-4.51,22.15-22.08,37.11-27.23-11.63s-37-38.77-13.75-44.31a20.391,20.391,0,0,0,7.72-3.44c4.57-3.44,6-8.45,6-13.35,0-8.09-3.78-15.89-3.78-15.89l47.63-15a76.077,76.077,0,0,0-3.42,19.3c-.36,13,4.46,19.36,8.41,22.41a14.441,14.441,0,0,0,5.01,2.65Z" transform="translate(-74.016 -31.65)" fill="#fbbebe"/><path d="M1009.16,246.9a76.077,76.077,0,0,0-3.42,19.3,34.909,34.909,0,0,1-2.77,2.94,37.67,37.67,0,0,1-37.66,8.6c0-8.09-3.78-15.89-3.78-15.89Z" transform="translate(-74.016 -31.65)" opacity="0.1"/><path d="M1014.62,240.81a37.5,37.5,0,1,1-10.966-26.669A37.66,37.66,0,0,1,1014.62,240.81Z" transform="translate(-74.016 -31.65)" fill="#fbbebe"/><path d="M1019.13,291.21l-4.51,22.15-22.08,37.11-27.23-11.63s-37-38.77-13.75-44.31a20.391,20.391,0,0,0,7.72-3.44c-4.2,11.55,13.14,35.57,13.14,35.57,2,3,6.65,1.1,6.65,1.1,11.16-1.68,31.73-33.81,35.08-39.15a14.439,14.439,0,0,0,4.98,2.6Z" transform="translate(-74.016 -31.65)" opacity="0.1"/><path d="M1040.45,506c-6.55,1.49-42.83,9.53-56.59,7.52-15.13-2.22-44.57-3.69-44.57-3.69s-18.74,1-24.51-1.62a7.956,7.956,0,0,1,.06-1.09l10.68-12.8s103.4-7.75,111.15,0C1038.58,496.21,1039.75,500.53,1040.45,506Z" transform="translate(-74.016 -31.65)" opacity="0.1"/><path d="M972.42,327.76s-19.48-27-12.14-37.49l-32.91,13.49s-19.81-2.4-27,27.16a51.129,51.129,0,0,0-1.23,15c.26,4.46-.34,12.31-5.42,22.46-8.13,16.25-6.28,53.54,10.34,57.24s22.52,1.84,22.52,1.84-2.21,67.58-11.81,75.33,24.47,5.91,24.47,5.91,29.44,1.48,44.58,3.69,57.6-7.75,57.6-7.75-6.28-28.44-8.49-46.53-7.39-56.62-7.39-56.62l37.67-51s6.64-30.83-16.62-44.49-32-17-32-17-23.34,38-35.52,39.87C979.07,328.87,974.44,330.73,972.42,327.76Z" transform="translate(-74.016 -31.65)" fill="#67647e"/><path d="M929.22,338.47s-.37,12.19,1.84,17,10.34,31.39,10.34,31.39H922.94s10-10.71,9.23-15.88S929.22,338.47,929.22,338.47Z" transform="translate(-74.016 -31.65)" opacity="0.1"/><path d="M983.87,430.42s-40.78-10-44.58-18.47S925,384.46,925,384.46l4.3-5.8,19.84,15.57s23.63,18.83,34.71,20.68S983.87,430.42,983.87,430.42Z" transform="translate(-74.016 -31.65)" fill="#fbbebe"/><path d="M983.87,430.42s-40.78-10-44.58-18.47S925,384.46,925,384.46l4.3-5.8,19.84,15.57s23.63,18.83,34.71,20.68S983.87,430.42,983.87,430.42Z" transform="translate(-74.016 -31.65)" opacity="0.05"/><path d="M1019.13,382.42v22.12h-3.56a103.521,103.521,0,0,0-50.193,12.99l-6.677,3.71-1.79,1-11.45-25.78,10.71-9.6h.55c2.62.25,13.95,1.2,18.75-.42,4.56-1.55,10.22-6.46,23.65-3,6.62,1.69,12.27,9.11,18.69,6.79Z" transform="translate(-74.016 -31.65)" fill="#fbbebe"/><path d="M1054.76,342.17l7.39,8.3V370.6s-6.28,63.51-26.22,70.53-55.53-4.07-55.53-4.07-9.2-24.37-4.9-25.84,38-10.38,38-10.38-.47-37.26,6.91-48.34c0,0-4.8-34.7,11.82-35.44S1054.76,342.17,1054.76,342.17Z" transform="translate(-74.016 -31.65)" opacity="0.1"/><path d="M1055.87,342.17l7.39,8.3V370.6S1057,434.11,1037,441.13s-55.54-4.07-55.54-4.07-9.19-24.37-4.89-25.84,38-10.38,38-10.38-.48-37.26,6.91-48.34c0,0-4.8-34.7,11.82-35.44S1055.87,342.17,1055.87,342.17Z" transform="translate(-74.016 -31.65)" fill="#67647e"/><path d="M1004.29,256.81c.15-2.43.2-5-.84-7.19s-3.48-3.94-5.86-3.38c-3.16.74-4.52,4.85-7.62,5.84-2.61.83-5.46-1-6.7-3.46s-1.28-5.3-1.29-8v-9.25c0-3.36-.11-7-2.18-9.62-2.57-3.29-8.62-4.72-12.66-4.59a10.72,10.72,0,0,0-7.23,2.92c-2.16,1.83-4.66,3.19-7.61,2.7a6.57,6.57,0,0,1-5.3-4.58v-.12a37.66,37.66,0,1,1,56,50,100.655,100.655,0,0,0,1.29-11.27Z" transform="translate(-74.016 -31.65)" opacity="0.1"/><path d="M952.28,221.64a6.58,6.58,0,0,1-5.3-4.59c-.31-1.19-.23-2.46-.58-3.65-.86-2.9-4-4.41-6-6.61-4.16-4.42-3.89-11.68-.94-17,2.38-4.28,7-7.89,11.81-7.06,3,.52,5.57,2.65,8.6,2.84s5.57-1.45,8.23-2.66a31,31,0,0,1,20.41-1.81,11.87,11.87,0,0,1,5.62,2.83,50.014,50.014,0,0,1,3,4.21c3.45,4.39,9.61,5.25,15.1,6.24s11.69,3.16,13.5,8.44c1.19,3.5,0,7.3-.65,10.94a3.16,3.16,0,0,0,.14,2.25c.86,1.42,3,.83,4.62,1.17,3.12.65,3.92,4.66,4,7.84q.2,5.46.3,10.92a10.73,10.73,0,0,1-3.47,9.13l-12.19,14.65c-5.41,6.5-11.15,14.07-10.06,22.45-2.56,1.15-5.6-1.07-6.44-3.75s-.16-5.56.4-8.31a101.729,101.729,0,0,0,1.93-14.42c.15-2.44.2-5-.84-7.19s-3.48-4-5.86-3.39c-3.16.74-4.52,4.85-7.62,5.84-2.6.83-5.46-1-6.7-3.46s-1.28-5.3-1.29-8v-9.26c0-3.35-.11-7-2.18-9.62-2.57-3.29-8.62-4.72-12.66-4.59a10.74,10.74,0,0,0-7.23,2.92C957.73,220.77,955.23,222.12,952.28,221.64Z" transform="translate(-74.016 -31.65)" fill="#745050"/><path d="M960.79,337.55l11.56,47.5S981.47,385,960.79,337.55Z" transform="translate(-74.016 -31.65)" opacity="0.1"/><path d="M1000.3,329.61s-15.14,24.8-9.23,50.43l2.82.21S988.85,368.38,1000.3,329.61Z" transform="translate(-74.016 -31.65)" opacity="0.1"/><path d="M1009.9,469.93s18.59-6.15,19.94,8.12C1029.84,478.05,1026.33,468.27,1009.9,469.93Z" transform="translate(-74.016 -31.65)" opacity="0.1"/><path d="M956.17,388s-3.69,25.85,3,36.19c0,0-13.52,5.54-32.5,4.43L924.42,388Z" transform="translate(-74.016 -31.65)" opacity="0.1"/><path d="M958.7,421.23l-1.79,1-11.45-25.78,10.71-9.6h.55C956.55,388.09,953.57,410.29,958.7,421.23Z" transform="translate(-74.016 -31.65)" opacity="0.1"/><path d="M956.17,386.85s-3.69,25.84,3,36.18c0,0-13.52,5.54-32.5,4.43l-12.92-40.61Z" transform="translate(-74.016 -31.65)" fill="#67647e"/><path d="M924.23,818.11a8.35,8.35,0,0,1-7.17,7.31c-10,1.5-34.18,5.32-40.28,8.22-7.75,3.69-38.4,1.11-39.88-2.58a5.86,5.86,0,0,1,.53-4.44,11.91,11.91,0,0,1,5-5.33,12.274,12.274,0,0,1,2.22-1c5.77-1.93,16.67-6,19.62-10.3,0,0,13.59-11.89,17.46-18.32a8.89,8.89,0,0,1,7.1-4.42c3.24-.15,6.84,1.48,8.31,8.57,0,0,17.72,10.11,22.51,1.24,0,0,.74,13.62,3.68,17.34h0a4.94,4.94,0,0,1,.9,3.71Z" transform="translate(-71.05 -31.65)" fill="#a27772"/><path d="M924.23,818.11a8.35,8.35,0,0,1-7.17,7.31c-10,1.5-34.18,5.32-40.28,8.22-7.75,3.69-38.4,1.11-39.88-2.58a5.86,5.86,0,0,1,.53-4.44,11.91,11.91,0,0,1,5-5.33c5,3.32,16.09,6.56,40.49,2.75,23.27-3.63,34.79-7.19,40.41-9.62h0a4.94,4.94,0,0,1,.9,3.69Z" transform="translate(-71.05 -31.65)" opacity="0.1"/><g transform="translate(863.243 166.04)" opacity="0.1"><path d="M1025,214.3v-.18c.53-2.77,1.32-5.63,1.14-8.39a53.753,53.753,0,0,1-1.14,6.73,4.09,4.09,0,0,0,0,1.84Z" transform="translate(-937.259 -197.69)"/><path d="M1003.44,248.86a10.879,10.879,0,0,1,.91,4.22,12.581,12.581,0,0,0-.91-5.88c-1-2.21-3.47-3.95-5.85-3.39-3.16.74-4.52,4.85-7.62,5.84-2.61.83-5.46-1-6.71-3.46s-1.27-5.3-1.28-8v-9.26c0-3.35-.11-7-2.18-9.62-2.57-3.29-8.63-4.72-12.66-4.59a10.72,10.72,0,0,0-7.23,2.92c-2.17,1.84-4.66,3.19-7.61,2.71a6.58,6.58,0,0,1-5.3-4.59c-.31-1.19-.23-2.46-.58-3.65-.87-2.9-4-4.41-6-6.61a12,12,0,0,1-3.11-7.81,12.58,12.58,0,0,0,3.11,9.47c2.08,2.2,5.17,3.72,6,6.62.35,1.18.27,2.45.58,3.64a6.58,6.58,0,0,0,5.3,4.59c3,.48,5.44-.87,7.61-2.71a10.72,10.72,0,0,1,7.23-2.92c4-.13,10.09,1.31,12.66,4.59,2.07,2.64,2.17,6.27,2.18,9.62v9.26c0,2.74,0,5.59,1.28,8s4.1,4.29,6.71,3.46c3.1-1,4.46-5.1,7.62-5.84C1000,244.92,1002.41,246.65,1003.44,248.86Z" transform="translate(-937.259 -197.69)"/><path d="M1033.79,238.69a14.17,14.17,0,0,1-3.14,5.08q-6.09,7.33-12.19,14.65c-5.13,6.17-10.57,13.31-10.17,21.18.37-7.22,5.4-13.79,10.17-19.52l12.19-14.64a14.3,14.3,0,0,0,3.14-5.09,13.74,13.74,0,0,0,.32-4,9.618,9.618,0,0,1-.32,2.34Z" transform="translate(-937.259 -197.69)"/><path d="M1002,277.12a8.768,8.768,0,0,1-.36-2,10,10,0,0,0,.36,3.64c.84,2.68,3.89,4.89,6.45,3.74-.07-.54-.11-1.08-.13-1.62C1005.74,281.94,1002.78,279.76,1002,277.12Z" transform="translate(-937.259 -197.69)"/></g><path d="M879.26,795s3.86,6.79,17.84.81" transform="translate(-70.862 -31.65)" opacity="0.1"/><path d="M997.5,796.67s12.06,14.2,27.26,4.65" transform="translate(-74.016 -31.65)" opacity="0.1"/><path d="M1032.61,628.7s-8.53,5.33-8.8,8.38,4.4-2.22,4.4-2.22Z" transform="translate(-74.016 -31.65)" opacity="0.1"/><path d="M1036,669.53a17.809,17.809,0,0,1-10.5,4.1c-6.37.28-5.84,8.59-1.68,6.09S1036,669.53,1036,669.53Z" transform="translate(-74.016 -31.65)" opacity="0.1"/><path d="M1037.59,674.86s-4.09,20.1-7.41,16.22" transform="translate(-74.016 -31.65)" opacity="0.1"/><path d="M203.293,593.894l.495-.125h.619l-.3,1.1-.318,1.179c-.1,1-.682,3.184-1.027,5.717-.516,3.771-1.309,8.489-.564,10.672.349,1.024-.73,3.044-4.312,3.847a18.341,18.341,0,0,1-9.187-.893c-.416-.166-1.042-.327-1.814-.573a22.328,22.328,0,0,1-6.711-2.945c-1.924-1.454-1.666-4.707-3.215-6.572-.507-.609-1.772-.961-2.63-1.634a3.955,3.955,0,0,0-1.945-.627,4.527,4.527,0,0,0-1.977.122s.033-1.165.134-3.253a33.736,33.736,0,0,0,.132-3.582,27.1,27.1,0,0,1,0-3.815l.1-1.055.082-1.217a15.073,15.073,0,0,1,0-1.658l.09-2.052.405-.088.344.088.378.121c3.105.808,7.429,1.973,13.339,3.393,2.81.675,5.892,1.156,8.935,1.764,2.182.436,4.206,1.063,6.173,1.547.905.221,1.943.32,2.6.545C203.354,593.973,203.293,593.894,203.293,593.894Z" transform="translate(644.386 153.62)" fill="#efb7b9"/><path d="M166.754,593.842s12.849,3.187,23.177,5.471c3.4.753,6.555,1.823,8.779,2.012,1.479.128,2.56-.262,2.347-.825.523-.865.018.265,1.558-8.112.548-1.818,1.237-3.3,1.069-4-11.506-.33-24.512-2.8-34.8-5.646a.154.154,0,0,1-.08,0c-.087.037-.931-.474-1.246-.212-.239.157.013.5-.095,1.271-.165,1-.238,3.33-.363,5.387C166.957,591.471,166.754,593.842,166.754,593.842Z" transform="translate(648.73 146.094)" opacity="0.33"/><path d="M166.454,595.26a47.286,47.286,0,0,0,11.83,3.919c5.184.939,11.339.364,15.411,0,3.668-.326,3.369-2.535,3.393-5.287a61.027,61.027,0,0,0,0-6.622c-8-.36-21.789-1.43-28.947-4.53a.07.07,0,0,1-.056,0C166.181,584,166.454,595.26,166.454,595.26Z" transform="translate(756.386 154.094)" opacity="0.333"/></g></g></svg>