<svg xmlns="http://www.w3.org/2000/svg" xmlns:xlink="http://www.w3.org/1999/xlink" width="1167.178" height="755.935" viewBox="0 0 1167.178 755.935"><defs><linearGradient id="a" x1="0.5" y1="1" x2="0.5" gradientUnits="objectBoundingBox"><stop offset="0" stop-color="gray" stop-opacity="0.251"/><stop offset="0.54" stop-color="gray" stop-opacity="0.122"/><stop offset="1" stop-color="gray" stop-opacity="0.102"/></linearGradient><linearGradient id="b" x1="-18.117" y1="-167.355" x2="-18.117" y2="-166.355" xlink:href="#a"/><linearGradient id="c" y2="0" xlink:href="#a"/></defs><g transform="translate(0 0)"><ellipse cx="541" cy="31" rx="541" ry="31" transform="translate(65.521 693.935)" fill="#4285f4" opacity="0.1"/><g transform="translate(16.274 478.058)" opacity="0.2"><path d="M1006.24,798.41a17.733,17.733,0,0,0,1.73,2.67q8.64-6.09,17.57-11.93c-.12-.25-.25-.51-.39-.76a16.84,16.84,0,0,0-6-6.52c-3.29-2-7-2.48-10-.86s-4.76,4.94-4.94,8.78a16.839,16.839,0,0,0,2.03,8.62Z" transform="translate(-862.493 -550.143)" fill="#3f3d56"/><ellipse cx="14.01" cy="10.7" rx="14.01" ry="10.7" transform="translate(142.261 245.59) rotate(-117.91)" fill="#3f3d56"/><ellipse cx="14.01" cy="10.7" rx="14.01" ry="10.7" transform="translate(134.25 230.455) rotate(-117.91)" fill="#3f3d56"/><ellipse cx="14.01" cy="10.7" rx="14.01" ry="10.7" transform="translate(126.226 215.316) rotate(-117.91)" fill="#3f3d56"/><ellipse cx="14.01" cy="10.7" rx="14.01" ry="10.7" transform="translate(118.211 200.172) rotate(-117.91)" fill="#3f3d56"/><path d="M1107.082,610.51a51.92,51.92,0,0,0,.78-7l-27,9.08,27-14a51.4,51.4,0,0,0-18.23-36.45L1063.522,600l20.31-42.07a51.28,51.28,0,1,0-48,90.35,51.194,51.194,0,0,0-.8,11l41.15-.32-40.52,6.67a51.33,51.33,0,0,0,29.84,38.68,51.28,51.28,0,1,0,71.23-37.72,51.29,51.29,0,0,0-29.67-56Z" transform="translate(-1005.385 -550.143)" fill="#4285f4"/><path d="M1005.419,681.39a51,51,0,0,0,24.53,22.88,51.28,51.28,0,1,0,71.23-37.72C1103.169,655.62,1002.719,676.31,1005.419,681.39Z" transform="translate(-969.812 -550.143)" opacity="0.1"/></g><g transform="translate(0 5.955)" opacity="0.2"><path d="M960.422,495.94a31.632,31.632,0,0,0,2.25,4.64q15.11-8.06,30.61-15.66c-.14-.43-.3-.88-.47-1.31a27.2,27.2,0,0,0-8.3-11.66c-4.87-3.9-10.74-5.37-16-3.38s-8.62,7-9.67,13.11a27.21,27.21,0,0,0,1.58,14.26Z" transform="translate(-768.272 -78.04)" fill="#3f3d56"/><ellipse cx="22.69" cy="17.33" rx="22.69" ry="17.33" transform="matrix(-0.356, -0.935, 0.935, -0.356, 190.337, 413.221)" fill="#3f3d56"/><ellipse cx="22.69" cy="17.33" rx="22.69" ry="17.33" transform="matrix(-0.356, -0.935, 0.935, -0.356, 180.464, 387.308)" fill="#3f3d56"/><ellipse cx="22.69" cy="17.33" rx="22.69" ry="17.33" transform="matrix(-0.356, -0.935, 0.935, -0.356, 170.607, 361.383)" fill="#3f3d56"/><ellipse cx="22.69" cy="17.33" rx="22.69" ry="17.33" transform="matrix(-0.356, -0.935, 0.935, -0.356, 160.735, 335.48)" fill="#3f3d56"/><path d="M1106.713,185.69a83.356,83.356,0,0,0,2.65-11.18l-45.22,9.21,46.16-17.18a83.11,83.11,0,0,0-21.91-62L1038.833,160l41-63.53a83,83,0,1,0-95.09,135.6,83.419,83.419,0,0,0-3.46,17.51l66.17,7.68-66.43,2.65a83.07,83.07,0,0,0,40.25,68.09,83,83,0,1,0,122-46.42,83,83,0,0,0-36.52-95.93Z" transform="translate(-944.683 -78.04)" fill="#4285f4"/><path d="M944.732,286.39A82.591,82.591,0,0,0,979.592,328a83,83,0,1,0,122-46.42C1106.922,264.46,941.412,277.69,944.732,286.39Z" transform="translate(-903.002 -78.04)" opacity="0.1"/></g><g transform="translate(911.956)" opacity="0.2"><path d="M234.046,582.15a37.288,37.288,0,0,1-2,5.8q-19-7.28-38.43-14c.11-.53.22-1.08.36-1.62a32.41,32.41,0,0,1,8.07-15c5.18-5.32,11.89-7.92,18.34-6.34s11.2,7,13.35,14a32.49,32.49,0,0,1,.31,17.16Z" transform="translate(-157.101 -72.085)" fill="#3f3d56"/><ellipse cx="20.61" cy="26.98" rx="20.61" ry="26.98" transform="translate(78.313 504.213) rotate(-166.28)" fill="#3f3d56"/><ellipse cx="20.61" cy="26.98" rx="20.61" ry="26.98" transform="translate(86.137 472.191) rotate(-166.28)" fill="#3f3d56"/><ellipse cx="20.61" cy="26.98" rx="20.61" ry="26.98" transform="translate(93.951 440.158) rotate(-166.28)" fill="#3f3d56"/><ellipse cx="20.61" cy="26.98" rx="20.61" ry="26.98" transform="translate(101.777 408.116) rotate(-166.28)" fill="#3f3d56"/><path d="M83.087,211.62a97.857,97.857,0,0,1-4.78-12.8l54.71,4.18-57-13.46a98.81,98.81,0,0,1,16.71-76.43l66.68,58.24-57.77-68.92a98.72,98.72,0,1,1,132.2,146,99.321,99.321,0,0,1,6.67,20.16l-76.95,18.81,78.78-6.67A98.81,98.81,0,0,1,204.907,367a98.71,98.71,0,1,1-150.76-36.8,98.71,98.71,0,0,1,29-118.58Z" transform="translate(-16.342 -72.085)" fill="#4285f4"/><path d="M271.539,312.71a98.29,98.29,0,0,1-35,54.29,98.71,98.71,0,1,1-150.76-36.8C76.9,310.75,274.149,302,271.539,312.71Z" transform="translate(-47.974 -72.085)" opacity="0.1"/></g><path d="M103.8,185.7h968.74a8.64,8.64,0,0,1,8.63,8.66V787.24a17.43,17.43,0,0,1-17.4,17.46H112.57a17.43,17.43,0,0,1-17.4-17.46V194.36A8.65,8.65,0,0,1,103.8,185.7Z" transform="translate(7.18 -72.085)" fill="url(#a)"/><path d="M99.25,222.51V783.75A17.26,17.26,0,0,0,116.5,801h943.49a17.26,17.26,0,0,0,17.26-17.26V222.51Z" transform="translate(7.021 -72.085)" fill="#fff"/><path d="M99.25,197.57v24.94h978V197.57a8.56,8.56,0,0,0-8.56-8.56H107.81a8.56,8.56,0,0,0-8.56,8.56Z" transform="translate(7.021 -72.085)" fill="#ededf4"/><circle cx="4" cy="4" r="4" transform="translate(1064.771 129.425)" fill="#fa5959" opacity="0.8"/><circle cx="4" cy="4" r="4" transform="translate(1053.771 129.425)" fill="#fed253" opacity="0.8"/><circle cx="4" cy="4" r="4" transform="translate(1042.771 129.425)" fill="#8ccf4d" opacity="0.8"/><rect width="4" height="6" transform="translate(544.351 98.625) rotate(90)" fill="url(#b)"/><rect width="94" height="10" transform="translate(765.351 199.615)" fill="#ededf4"/><rect width="528" height="10" transform="translate(331.351 228.615)" fill="#ededf4"/><rect width="528" height="10" transform="translate(331.351 257.615)" fill="#ededf4"/><rect width="528" height="10" transform="translate(331.351 286.615)" fill="#ededf4"/><rect width="528" height="10" transform="translate(331.351 315.615)" fill="#ededf4"/><rect width="326" height="252" transform="translate(432.521 370.935)" fill="#ededf4"/><path d="M531.914,521.09c.42,0,.84.06,1.27.07a5.58,5.58,0,0,1-.14-1.78,17,17,0,0,1,2-7.21,31.3,31.3,0,0,1,2.48-3.76c2.72-3.76,5.24-7.6,8.23-11.15a17.929,17.929,0,0,0,3.17-4.67,22.833,22.833,0,0,1,1.08-2.71,5.83,5.83,0,0,1,5.45-2.65,8.65,8.65,0,0,1,5.52,2.92c.84.9,1.53,2.29.83,3.31s-2.22,1.15-2.31,2.27c0,.6,0,1.58.61,1.77a10.869,10.869,0,0,1,3.06,1.34,3.61,3.61,0,0,1,1.61,2.8c-1.73.26-3.18-1.19-4.75-2a8.77,8.77,0,0,0-6.28-.23,5.88,5.88,0,0,0-2.16,1.09,7.61,7.61,0,0,0-1.4,1.88,20.069,20.069,0,0,0-3.46,9.38l-.88,5.62a36.5,36.5,0,0,1,3.88.52,24.37,24.37,0,0,0,10.33-.7c3.5-1,7-2.82,10.61-2,1.69.37,3.23,1.31,4.94,1.58a13.53,13.53,0,0,0,4-.21l2.75-.44c.09-.23.16-.47.23-.71a20.74,20.74,0,0,0,.78-6.17,11,11,0,0,1-9.4-15.59,9.329,9.329,0,0,1-3.55-3.53l.7-.13-.66-1a1.18,1.18,0,0,0,.19-1.87,3.769,3.769,0,0,1,1.89-.42c-.21-.39.13-.87.54-1a4.7,4.7,0,0,1,1.3-.08,6.368,6.368,0,0,0,1.86-.43c4.27-1.47,8.9-2.76,13.25-1.53a16.572,16.572,0,0,1,5.29,2.78,6.91,6.91,0,0,1,2.82,9.07,23.483,23.483,0,0,0-1.41,5.09,16.159,16.159,0,0,0,.55,4.83,19.693,19.693,0,0,1-2.91.65,16.5,16.5,0,0,0,2.89,5.92,23.525,23.525,0,0,0,2,2.21h.12a48.6,48.6,0,0,0,6,.74c2.12,0,4.2-.8,6.31-.65a17.11,17.11,0,0,1,3.67.83,56.232,56.232,0,0,0,16.91,2.26l.69.07-.64-4.08a20.071,20.071,0,0,0-3.46-9.38,7.609,7.609,0,0,0-1.4-1.88,5.921,5.921,0,0,0-2.17-1.09,8.74,8.74,0,0,0-6.27.23c-1.57.77-3,2.22-4.76,2a3.64,3.64,0,0,1,1.62-2.8,10.869,10.869,0,0,1,3.06-1.34c.58-.19.66-1.17.61-1.77-.09-1.12-1.68-1.36-2.31-2.28s0-2.4.83-3.31a8.66,8.66,0,0,1,5.52-2.91,5.81,5.81,0,0,1,5.44,2.65,21.293,21.293,0,0,1,1.09,2.71,17.929,17.929,0,0,0,3.17,4.67c3,3.55,5.51,7.39,8.23,11.15a33.311,33.311,0,0,1,2.48,3.75,17.239,17.239,0,0,1,2,7.22,5.64,5.64,0,0,1-.14,1.79,1.152,1.152,0,0,1,.11.45,2.08,2.08,0,0,1-.78,1.4c-1.53,1.54-3.14,3.13-5.2,3.79a31.94,31.94,0,0,1-3.89.67c-3.16.57-6.07,2.4-9.28,2.39-2.21,0-4.39-.88-6.57-.57-3,.41-5.16,2.85-7,5.22a18,18,0,0,0-3.45,6.31c-.71,2.79-.27,5.93-1.76,8.39a5.711,5.711,0,0,0-.86,1.66,5.56,5.56,0,0,0,.61,2.72c1.26,3.87-1.5,8-1.21,12,.14,1.95,1,3.79,1.09,5.74.15,2.51-.87,5.32.53,7.41-.85-.44-1.71-.83-2.59-1.18,4.2,12.31,8,25,7.71,37.94-.22,8.39-2,17.63,2.82,24.52a9.68,9.68,0,0,1,1.61,2.75,9.349,9.349,0,0,1-.25,4.16c-.89,6,2.35,11.91,2.57,18a36.29,36.29,0,0,1-.36,5.61l-1.18,10.14a7.361,7.361,0,0,1,3.22,1.6c1.24,1,2.33,2.64,1.75,4.14-.47,1.21-1.85,1.79-3.12,2.09a7.821,7.821,0,0,0-3.62,1.37,13.892,13.892,0,0,1-1.09,1.08,4,4,0,0,1-2.42.45c-1.53-.06-3-.19-4.56-.4a1.811,1.811,0,0,1-.91-.29,2,2,0,0,1-.51-1.5,19.87,19.87,0,0,1,.19-4.56c.06-.29.14-.57.22-.86a17.752,17.752,0,0,1-1.11-4c-.31-2-.36-4.09-.49-6.14-.3-5.22-1-10.4-1.8-15.58l-1-6.66c-.31-2.19-.63-4.38-1-6.57a206.615,206.615,0,0,0-8.62-34.9c-.85-2.43-2.3-5.28-4.87-5.35l-1.53,3c-2,3.76-3.22,7.93-4.74,11.88-2,5.19-1.32,11.25-4,16.13a22.135,22.135,0,0,0-1.33,2.43,14,14,0,0,0-.82,4.07l-1.77,18c-.8,8.09-1.66,16.4-5.29,23.67a9.117,9.117,0,0,1-.8,1.34,23.246,23.246,0,0,1,.05,3.64,1.43,1.43,0,0,1-1.42,1.79c-1.51.2-3,.33-4.55.39a4,4,0,0,1-2.42-.45,11.2,11.2,0,0,1-1.1-1.08,7.78,7.78,0,0,0-3.61-1.37c-1.27-.29-2.65-.87-3.12-2.09-.59-1.5.51-3.13,1.75-4.14a7,7,0,0,1,3.56-1.65,5.917,5.917,0,0,0,1.62-.13,8,8,0,0,1-.12-2,10,10,0,0,0,.1-2.38,14.135,14.135,0,0,0-.82-2.34c-1.15-3.54,1.3-7.14,2.16-10.76,1.15-4.82-.56-9.87-.25-14.82.48-7.77,5.9-15.06,4.46-22.71-1.15-6.12-.17-12.41.92-18.54l4-22.81a25.281,25.281,0,0,1,1.45-5.41,12.743,12.743,0,0,1-2.18-.58c-1-2.44-.83-5.13-.53-7.75s1-5.18,1.35-7.78a51.277,51.277,0,0,0,.52-6.31,25.43,25.43,0,0,0-.44-6.22,29.918,29.918,0,0,0-1.87-5.23,92.864,92.864,0,0,0-7-14c-4.11-.32-8.09-.67-12.19-1a16.931,16.931,0,0,1-2.92-.39,36.926,36.926,0,0,0-3.73-1.07,5,5,0,0,1-1.38-.27c-.9-.41-1.45-1.56-2.44-1.6a4.242,4.242,0,0,1-1.12,0c-.44-.14-.66-.62-1-1-.62-.69-1.63-.83-2.44-1.28a3.54,3.54,0,0,1-1.34-4.33Z" transform="translate(6.407 -72.085)" fill="url(#c)"/><path d="M11,0A11,11,0,1,0,22,11,11,11,0,0,0,11,0Z" transform="translate(579.341 416.065)" fill="#fbbebe"/><path d="M594.48,512.84a27.413,27.413,0,0,0,3.75,3.79,29.79,29.79,0,0,1-21.5,3.54c.27-.75,1.25-.86,1.94-1.24a4.19,4.19,0,0,0,1.7-2.68,20.941,20.941,0,0,0,.64-8.11,5,5,0,0,1,0-2,4.29,4.29,0,0,1,2.07-2.28,20.41,20.41,0,0,1,5-2.25c1.82-.54,2.86-.79,2.93,1.33a16.85,16.85,0,0,0,3.47,9.9Z" transform="translate(8.561 -72.085)" fill="#fbbebe"/><path d="M624.91,519.76l1.12-7.1a26.389,26.389,0,0,1,.89-4.22,27.215,27.215,0,0,1,2.56-5.12,7.561,7.561,0,0,1,1.4-1.87,5.88,5.88,0,0,1,2.16-1.09,8.71,8.71,0,0,1,6.26.24c1.57.76,3,2.2,4.75,1.95a3.58,3.58,0,0,0-1.62-2.79,10.569,10.569,0,0,0-3-1.34c-.57-.18-.66-1.16-.61-1.76.09-1.11,1.68-1.35,2.31-2.26s0-2.39-.82-3.3a8.61,8.61,0,0,0-5.51-2.89,5.78,5.78,0,0,0-5.44,2.63,21.15,21.15,0,0,0-1.09,2.7,18,18,0,0,1-3.16,4.65c-3,3.53-5.51,7.35-8.22,11.09a34.6,34.6,0,0,0-2.48,3.74,16.911,16.911,0,0,0-2,7.18,4.47,4.47,0,0,0,.33,2.27,3.52,3.52,0,0,0,3,1.72,10.63,10.63,0,0,0,3.59-.72l4.36-1.47a2.84,2.84,0,0,0,1.4-.77,1.1,1.1,0,0,0-.18-1.47Z" transform="translate(-72.909 -72.085)" fill="#fbbebe"/><path d="M550.983,521.33l-1.11-7.1a27.552,27.552,0,0,0-.9-4.22,26.621,26.621,0,0,0-2.56-5.12,7.07,7.07,0,0,0-1.39-1.86,5.66,5.66,0,0,0-2.16-1.09,8.74,8.74,0,0,0-6.27.23c-1.57.76-3,2.2-4.75,1.95a3.6,3.6,0,0,1,1.62-2.79,10.69,10.69,0,0,1,3-1.34c.57-.18.66-1.16.61-1.76-.09-1.11-1.67-1.35-2.31-2.26s0-2.39.83-3.29a8.6,8.6,0,0,1,5.51-2.9,5.79,5.79,0,0,1,5.44,2.63,21.117,21.117,0,0,1,1.08,2.7,18.211,18.211,0,0,0,3.16,4.65c3,3.53,5.51,7.35,8.23,11.09a34,34,0,0,1,2.47,3.74,17.07,17.07,0,0,1,2,7.18,4.53,4.53,0,0,1-.34,2.28,3.53,3.53,0,0,1-3.05,1.71,10.339,10.339,0,0,1-3.58-.72l-4.37-1.43a2.77,2.77,0,0,1-1.39-.77A1.1,1.1,0,0,1,550.983,521.33Z" transform="translate(88.168 -72.085)" fill="#fbbebe"/><path d="M610.97,683.41c-1.24,1-2.33,2.63-1.75,4.12.48,1.21,1.85,1.78,3.12,2.08a7.881,7.881,0,0,1,3.61,1.36,11,11,0,0,0,1.09,1.03,3.93,3.93,0,0,0,2.42.45c1.52-.06,3-.19,4.55-.39a1.81,1.81,0,0,0,.91-.29,1.93,1.93,0,0,0,.5-1.49,19.126,19.126,0,0,0-.18-4.54,6.5,6.5,0,0,0-2.19-3.87c-1.16-.9-4.68-3.57-6-1.86-.35.46-.21,1.09-.7,1.47s-1.26.17-1.82.24a7,7,0,0,0-3.56,1.69Z" transform="translate(-51.019 -72.085)" fill="#a27772"/><path d="M568.593,683.93c1.24,1,2.33,2.63,1.75,4.12-.47,1.21-1.84,1.79-3.11,2.08a7.84,7.84,0,0,0-3.61,1.36,11.191,11.191,0,0,1-1.1,1.08,4,4,0,0,1-2.41.45c-1.52-.06-3-.19-4.55-.4a1.781,1.781,0,0,1-.91-.29,1.93,1.93,0,0,1-.51-1.49,19.587,19.587,0,0,1,.19-4.53,6.45,6.45,0,0,1,2.19-3.88c1.15-.9,4.67-3.57,6-1.86.35.46.21,1.1.71,1.47s1.25.17,1.82.24a7.06,7.06,0,0,1,3.54,1.65Z" transform="translate(58.927 -72.085)" fill="#a27772"/><path d="M604.273,577.23c4.51,13,8.89,26.45,8.55,40.24-.22,8.35-2,17.55,2.81,24.4a9.539,9.539,0,0,1,1.61,2.74,9.41,9.41,0,0,1-.24,4.14c-.9,6,2.33,11.86,2.56,17.92a36,36,0,0,1-.36,5.58l-1.25,10.68c-.42,3.66-5.14,5.16-8.78,5.67a13.61,13.61,0,0,1-3.09-7.19c-.31-2-.36-4.07-.48-6.1-.31-5.2-1.06-10.36-1.8-15.51l-1-6.63c-.32-2.18-.63-4.36-1-6.54a205.658,205.658,0,0,0-8.63-34.63c-.85-2.43-2.3-5.26-4.86-5.33l-1.53,2.94c-2,3.73-3.21,7.89-4.73,11.82-2,5.17-1.31,11.19-4,16.06a20.246,20.246,0,0,0-1.32,2.41,13.9,13.9,0,0,0-.82,4l-1.77,17.88c-.8,8.05-1.65,16.32-5.28,23.55a5.469,5.469,0,0,1-1.67,2.2c-1.48,1-3.55.49-5-.55a8.53,8.53,0,0,1-3.46-7.38,11.068,11.068,0,0,0,.1-2.37,15.763,15.763,0,0,0-.82-2.33c-1.16-3.52,1.29-7.1,2.16-10.7,1.15-4.8-.56-9.82-.26-14.75.48-7.74,5.89-15,4.46-22.61-1.15-6.09-.17-12.35.91-18.45l4.05-22.7c.64-3.58,1.6-7.62,4.79-9.37a11.9,11.9,0,0,1,5.83-1C588.223,575.32,596.123,576.47,604.273,577.23Z" transform="translate(6.248 -72.085)" fill="#3f3d56"/><path d="M532.026,521.9a14.3,14.3,0,0,0,8.4-1.74,16.859,16.859,0,0,1,3.09-1.62c2-.65,4.2-.08,6.3.23a24.6,24.6,0,0,0,10.31-.7c3.5-1,7-2.81,10.6-2,1.69.37,3.22,1.3,4.93,1.57a13.121,13.121,0,0,0,4-.21l11.4-1.78a31.181,31.181,0,0,1,7.82-.56,50.63,50.63,0,0,0,6,.75c2.11,0,4.19-.8,6.3-.66a17.163,17.163,0,0,1,3.66.83,56.331,56.331,0,0,0,16.87,2.25,25.331,25.331,0,0,1,12.69,4.4,2,2,0,0,1,1,1.39,2.049,2.049,0,0,1-.79,1.38c-1.52,1.54-3.13,3.12-5.19,3.78a31.431,31.431,0,0,1-3.88.66c-3.15.58-6.06,2.39-9.26,2.39-2.21,0-4.38-.88-6.56-.57-3,.41-5.15,2.83-7,5.19a18.171,18.171,0,0,0-3.45,6.28c-.7,2.78-.26,5.9-1.75,8.35a5.782,5.782,0,0,0-.86,1.65,5.5,5.5,0,0,0,.61,2.71c1.26,3.85-1.5,7.92-1.21,12,.14,1.93,1,3.77,1.09,5.7.14,2.51-.87,5.3.53,7.38a35.85,35.85,0,0,0-17.45-3.81,21.879,21.879,0,0,0-3,.28,42.018,42.018,0,0,0-5.68,1.58c-4.18,1.33-8.78,2.28-12.9.76-1-2.43-.83-5.11-.52-7.71s.95-5.16,1.34-7.75a50.818,50.818,0,0,0,.52-6.28,25.189,25.189,0,0,0-.44-6.19,29.333,29.333,0,0,0-1.87-5.2,91.613,91.613,0,0,0-7-14c-4.1-.33-8.07-.68-12.17-1a18.857,18.857,0,0,1-2.91-.39,37.453,37.453,0,0,0-3.72-1.06,4.909,4.909,0,0,1-1.38-.28c-.9-.41-1.46-1.55-2.44-1.58a4.69,4.69,0,0,1-1.12,0c-.44-.13-.65-.62-1-1-.62-.69-1.63-.83-2.44-1.27a3.52,3.52,0,0,1-1.47-4.15Z" transform="translate(6.294 -72.085)" fill="#67647e"/><path d="M590.564,503.12a2,2,0,0,1-2.27.14,2.82,2.82,0,0,1-.84-1.54,35.419,35.419,0,0,1-.87-3.8,4.17,4.17,0,0,0-.5-1.59c-.73-1.12-2.31-1.18-3.54-1.69a9.2,9.2,0,0,1-3.63-3.56l.69-.14-.65-1a1.16,1.16,0,0,0,.18-1.85,3.69,3.69,0,0,1,1.9-.43c-.21-.38.13-.86.54-1a4.269,4.269,0,0,1,1.29-.07,6.381,6.381,0,0,0,1.86-.44c4.26-1.46,8.88-2.75,13.22-1.52a16.44,16.44,0,0,1,5.29,2.77,6.87,6.87,0,0,1,2.81,9,23.281,23.281,0,0,0-1.4,5.05,16.08,16.08,0,0,0,.54,4.82,15.721,15.721,0,0,1-3.65.71,5.24,5.24,0,0,1-3.5-1,19.876,19.876,0,0,1-2.38-3.27,3.39,3.39,0,0,0-2.89-1.52C591.654,501.36,591.454,502.49,590.564,503.12Z" transform="translate(-2.134 -72.085)" fill="#745050"/><path d="M406.9,692h11.71a1.53,1.53,0,0,1,0,3h-2.34v19.87h40.07a1.11,1.11,0,0,1,.89-.54h11.7a1.53,1.53,0,0,1,0,3h-2.34v20.41h38.69a1.24,1.24,0,0,1,1.1-1.08h11.69a1.52,1.52,0,0,1,0,3H516.9v21h39.33a1,1,0,0,1,.48-.13h11.7a1.53,1.53,0,0,1,0,3h-1.17v20h38.83a1.12,1.12,0,0,1,1-.68h11.7a1.53,1.53,0,0,1,0,3H617.6V808H353.072V692Z" transform="translate(210.449 -72.085)" fill="#3f3d56"/><path d="M157.354,308.3a27.69,27.69,0,0,1,3.91-4.18,3.36,3.36,0,0,0-.37-5.35c-.48-.31-.95-.64-1.42-1-5.46-4.15-8.22-9.72-6.15-12.45s8.18-1.57,13.64,2.58a21,21,0,0,1,1.81,1.51,3.35,3.35,0,0,0,5.24-1,28.279,28.279,0,0,1,2.69-4.28c4.86-6.4,11.38-9.63,14.57-7.21s1.85,9.58-3,16a27.58,27.58,0,0,1-3.15,3.5,3.38,3.38,0,0,0,.74,5.39h0c6,3.43,9.39,8.6,7.69,11.57s-7.92,2.6-13.87-.82a26.124,26.124,0,0,1-2.66-1.77,3.38,3.38,0,0,0-5.1,1.24,26.26,26.26,0,0,1-3,5c-4.85,6.4-11.38,9.63-14.57,7.21S152.5,314.71,157.354,308.3Z" transform="translate(836.907 -72.085)" fill="#4285f4" opacity="0.1"/><path d="M905.026,481.11a27.219,27.219,0,0,1-2.87-4.95,3.34,3.34,0,0,0-5.21-1.2c-.44.36-.9.71-1.37,1.06-5.56,4-11.7,5-13.7,2.25s.88-8.28,6.44-12.3q1-.71,2-1.29a3.35,3.35,0,0,0,.55-5.31,27.178,27.178,0,0,1-3.3-3.82c-4.71-6.51-5.89-13.69-2.65-16s9.7,1,14.41,7.55a28.2,28.2,0,0,1,2.43,4,3.38,3.38,0,0,0,5.37.87h0c5-4.69,11-6.47,13.31-4s.17,8.33-4.84,13a24.15,24.15,0,0,1-2.47,2,3.38,3.38,0,0,0-.29,5.24,26.847,26.847,0,0,1,3.93,4.39c4.71,6.51,5.89,13.69,2.64,16S909.736,487.63,905.026,481.11Z" transform="translate(-619.086 -72.085)" fill="#4285f4" opacity="0.1"/><ellipse cx="33.8" cy="6.5" rx="33.8" ry="6.5" transform="translate(247.021 733.595)" fill="#4285f4"/><ellipse cx="3.94" cy="5.15" rx="3.94" ry="5.15" transform="translate(277.441 732.185)" fill="#3f3d56"/><ellipse cx="3.94" cy="5.15" rx="3.94" ry="5.15" transform="translate(277.441 725.885)" fill="#3f3d56"/><ellipse cx="3.94" cy="5.15" rx="3.94" ry="5.15" transform="translate(277.441 719.595)" fill="#3f3d56"/><ellipse cx="3.94" cy="5.15" rx="3.94" ry="5.15" transform="translate(277.441 713.295)" fill="#3f3d56"/><ellipse cx="3.94" cy="5.15" rx="3.94" ry="5.15" transform="translate(277.441 706.995)" fill="#3f3d56"/><ellipse cx="3.94" cy="5.15" rx="3.94" ry="5.15" transform="translate(277.441 700.705)" fill="#3f3d56"/><ellipse cx="3.94" cy="5.15" rx="3.94" ry="5.15" transform="translate(277.441 694.405)" fill="#3f3d56"/><path d="M887.21,728.55a19.945,19.945,0,0,1-1.46-2.16l10.33-1.7-11.18.09a18.84,18.84,0,0,1-.36-14.94l15,7.78L885.7,707.45a18.85,18.85,0,1,1,31.14,21.1,19.286,19.286,0,0,1,2.15,3.44l-13.43,7,14.32-4.8a18.889,18.889,0,0,1-3,17.7,18.85,18.85,0,1,1-29.64,0,18.87,18.87,0,0,1,0-23.31Z" transform="translate(-620.559 -72.085)" fill="#4285f4"/><path d="M920.84,740.2a18.83,18.83,0,0,1-4,11.66,18.85,18.85,0,1,1-29.64,0C884.65,748.65,920.84,738.09,920.84,740.2Z" transform="translate(-620.519 -72.085)" opacity="0.1"/><ellipse cx="15.3" cy="2.94" rx="15.3" ry="2.94" transform="translate(881.521 738.705)" fill="#4285f4"/><ellipse cx="1.78" cy="2.33" rx="1.78" ry="2.33" transform="translate(895.291 738.065)" fill="#3f3d56"/><ellipse cx="1.78" cy="2.33" rx="1.78" ry="2.33" transform="translate(895.291 735.215)" fill="#3f3d56"/><ellipse cx="1.78" cy="2.33" rx="1.78" ry="2.33" transform="translate(895.291 732.365)" fill="#3f3d56"/><ellipse cx="1.78" cy="2.33" rx="1.78" ry="2.33" transform="translate(895.291 729.515)" fill="#3f3d56"/><ellipse cx="1.78" cy="2.33" rx="1.78" ry="2.33" transform="translate(895.291 726.665)" fill="#3f3d56"/><ellipse cx="1.78" cy="2.33" rx="1.78" ry="2.33" transform="translate(895.291 723.815)" fill="#3f3d56"/><ellipse cx="1.78" cy="2.33" rx="1.78" ry="2.33" transform="translate(895.291 720.965)" fill="#3f3d56"/><path d="M279.665,775.87a8.078,8.078,0,0,1-.67-1l4.68-.77h-5.06a8.541,8.541,0,0,1-.78-3.57,8.43,8.43,0,0,1,.62-3.19l6.79,3.52-6.26-4.6a8.53,8.53,0,1,1,14.09,9.55,8.576,8.576,0,0,1,1,1.55L288,780.52l6.48-2.18a8.54,8.54,0,0,1-1.38,8,8.54,8.54,0,1,1-13.41,0,8.52,8.52,0,0,1,0-10.55Z" transform="translate(610.746 -72.085)" fill="#4285f4"/><path d="M294.941,781.14a8.53,8.53,0,0,1-1.83,5.281,8.54,8.54,0,1,1-13.41,0C278.551,785,294.941,780.18,294.941,781.14Z" transform="translate(610.71 -72.085)" opacity="0.1"/></g></svg>