<svg xmlns="http://www.w3.org/2000/svg" width="499.712" height="499.696" viewBox="0 0 499.712 499.696"><g transform="translate(0 -0.008)"><path d="M146.88,375.528c126.272,0,228.624-102.368,228.624-228.64A227.65,227.65,0,0,0,321.984.008C425.056,33.1,499.7,129.64,499.7,243.7c0,141.392-114.608,256-256,256C129.632,499.7,33.088,425.064,0,321.992A227.609,227.609,0,0,0,146.88,375.528Z" fill="#ffd93b"/><path d="M401.92,42.776a254.463,254.463,0,0,1,54.816,157.952c0,141.392-114.608,256-256,256A254.463,254.463,0,0,1,42.784,401.912C89.632,461.384,162.128,499.7,243.712,499.7c141.392,0,256-114.608,256-256C499.712,162.12,461.392,89.64,401.92,42.776Z" fill="#f4c534"/></g></svg>