<svg xmlns="http://www.w3.org/2000/svg" xmlns:xlink="http://www.w3.org/1999/xlink" width="787.92" height="730" viewBox="0 0 787.92 730"><defs><linearGradient id="a" x1="0.5" y1="1" x2="0.5" gradientUnits="objectBoundingBox"><stop offset="0" stop-color="gray" stop-opacity="0.251"/><stop offset="0.54" stop-color="gray" stop-opacity="0.122"/><stop offset="1" stop-color="gray" stop-opacity="0.102"/></linearGradient><linearGradient id="e" x1="-3.509" y1="1.65" x2="-3.509" y2="0.65" xlink:href="#a"/><linearGradient id="f" x1="-1.384" y1="1.65" x2="-1.384" y2="0.65" xlink:href="#a"/><linearGradient id="g" x1="0" y1="0.5" x2="1" y2="0.5" xlink:href="#a"/><linearGradient id="i" x1="0.5" x2="0.5" y2="0" xlink:href="#a"/><linearGradient id="k" x1="0" y1="0.5" x2="1" y2="0.5" xlink:href="#a"/><linearGradient id="n" x1="0.5" x2="0.5" y2="0" xlink:href="#a"/><linearGradient id="o" x1="0.5" x2="0.5" y2="0" xlink:href="#a"/></defs><g transform="translate(-1091 -4460)"><g transform="translate(1091 4460)"><rect width="284.09" height="270.68" transform="translate(136.93 199.62)" fill="url(#a)"/><rect width="271.9" height="258.49" transform="translate(143.02 205.71)" fill="#fff"/><rect width="252.39" height="238.98" transform="translate(152.78 215.47)" fill="#4285f4"/><path d="M503.08,353.55Z" transform="translate(-206.42 -85)" fill="#41b883"/><path d="M485.39,384.35l-18.09-30.8Z" transform="translate(-206.42 -85)" fill="#35495e"/><g opacity="0.5"><rect width="373.1" height="163.04" transform="translate(5.25)" fill="url(#a)"/></g><rect width="363.34" height="156.07" transform="translate(10.12 2.09)" fill="#fff"/><rect width="342.46" height="136.56" transform="translate(20.56 11.85)" fill="#4285f4"/><rect width="214.59" height="214.59" transform="translate(456.38 0.88)" fill="url(#a)"/><rect width="202.4" height="202.4" transform="translate(462.47 6.97)" fill="#fff"/><rect width="182.89" height="182.89" transform="translate(472.23 16.73)" fill="#4285f4"/><path d="M770.19,273l-56-31.07Z" transform="translate(-206.42 -85)" fill="#e23237"/><path d="M758.16,206Z" transform="translate(-206.42 -85)" fill="#fff"/><rect width="296.09" height="229.59" transform="translate(491.83 250.7)" fill="url(#a)"/><rect width="281.9" height="209.4" transform="translate(497.93 257.8)" fill="#fff"/><rect width="263.39" height="187.89" transform="translate(507.68 268.55)" fill="#4285f4"/><g opacity="0.7"><g opacity="0.1"><path d="M602.37,565.04V695.9H569.4V565.04h32.97Z" fill="url(#e)"/></g><g opacity="0.1"><path d="M567.34,565.04V695.9H534.36V565.04h32.98Z" fill="url(#f)"/></g></g><g opacity="0.7"><path d="M357.33,674.11a19.11,19.11,0,0,0-7.58-20.26,56.453,56.453,0,0,1-5.08-3.28c-2.57-2.16-4-5.35-5.09-8.53-2.54-7.64-3.34-16.2-7.8-23.1-4.06-6.28-12-8.12-19-8.74-2.55-.23-5.23-.35-7.57.71-3.91,1.77-5.77,6.38-5.94,10.66s.94,8.51,1.22,12.79-.48,9-3.64,11.88-7.68,3.24-11.86,3.82a78.55,78.55,0,0,0-16.08,4c-4.37,1.59-9.23,4.46-9.44,9.1-.17,3.8,2.89,6.82,5.2,9.84,4.3,5.65,6.45,13.09,5,20s-6.45,13.14-7.35,20.3a8.81,8.81,0,0,0,.72,5.36,9.809,9.809,0,0,0,2.72,2.88c2.7,2.09,5.71,3.76,8.26,6,5.32,4.71,8.21,11.56,10.43,18.32.21.65.4,1.31.61,2h-5.23a19.41,19.41,0,0,0-19.36,19.36h0a19.41,19.41,0,0,0,19.36,19.36H332.1a19.41,19.41,0,0,0,19.36-19.36h0a19.41,19.41,0,0,0-19.36-19.36H317.77c3.39-4.54,6.93-8.8,12.16-10.55s11.56-.72,15.66-4.37a12.27,12.27,0,0,0,3.55-7A21,21,0,0,0,346.85,712c-1.65-2.94-4.06-5.61-4.58-8.94-.45-2.85.58-5.73,2-8.25C348.2,687.61,355.19,682,357.33,674.11Z" transform="translate(-206.42 -85)" fill="url(#g)"/></g><path d="M312.62,614.39c-2.43-.22-5-.33-7.21.68-3.72,1.68-5.49,6.08-5.66,10.16s.9,8.1,1.16,12.18-.46,8.56-3.47,11.32-7.31,3.09-11.3,3.64a74.8,74.8,0,0,0-15.31,3.8c-4.16,1.51-8.79,4.25-9,8.67-.16,3.61,2.76,6.5,4.95,9.38,4.1,5.38,6.14,12.47,4.75,19.09s-6.14,12.51-7,19.33a8.39,8.39,0,0,0,.69,5.11,9.34,9.34,0,0,0,2.59,2.74c2.57,2,5.44,3.58,7.87,5.73,5.07,4.49,7.81,11,9.93,17.44A141.273,141.273,0,0,1,290.5,763c4.37-2.81,10-2.77,14.68-5.05,9.93-4.87,13.26-19,23.74-22.47,5-1.66,11-.69,14.91-4.16a11.69,11.69,0,0,0,3.38-6.7A20,20,0,0,0,345,711.35c-1.57-2.8-3.86-5.34-4.36-8.51-.43-2.71.56-5.46,1.88-7.86,3.77-6.85,10.43-12.16,12.46-19.71A18.2,18.2,0,0,0,347.79,656a53.76,53.76,0,0,1-4.83-3.13c-2.44-2.06-3.84-5.09-4.85-8.13-2.42-7.27-3.19-15.43-7.43-22C326.81,616.74,319.29,615,312.62,614.39Z" transform="translate(-206.42 -85)" fill="#4db6ac"/><path d="M312.55,614.64s9.22,123.5-14.75,144.7" transform="translate(-206.42 -85)" fill="none" stroke="#535461" stroke-miterlimit="10" stroke-width="1" opacity="0.6"/><rect width="86.64" height="36.87" rx="14.3" transform="translate(56.36 660.52)" fill="#4285f4"/><path d="M261.86,662.57s23.56-2.75,52.33,14.75" transform="translate(-206.42 -85)" fill="none" stroke="#535461" stroke-miterlimit="10" stroke-width="1" opacity="0.6"/><path d="M313.73,692.06a60.88,60.88,0,0,1,41.21-25.8" transform="translate(-206.42 -85)" fill="none" stroke="#535461" stroke-miterlimit="10" stroke-width="1" opacity="0.6"/><path d="M264.16,712.8s32.66-5.54,47.67,3.68" transform="translate(-206.42 -85)" fill="none" stroke="#535461" stroke-miterlimit="10" stroke-width="1" opacity="0.6"/><path d="M310,729.15s17.1-7.76,36.33-1.46" transform="translate(-206.42 -85)" fill="none" stroke="#535461" stroke-miterlimit="10" stroke-width="1" opacity="0.6"/><g opacity="0.7"><g opacity="0.1"><path d="M218.83,566.04V696.9h32.98V566.04H218.83Z" fill="url(#a)"/></g><g opacity="0.1"><path d="M253.87,566.04V696.9h32.97V566.04H253.87Z" fill="url(#i)"/></g><g opacity="0.1"><path d="M352.6,688.38,325.25,585.84h0l-1.59-5.97h0l-4.78-17.93-31.86,8.5,4.78,17.92h0l1.27,4.76,21.56,80.86h0l1.6,5.98h0l4.51,16.92Z" fill="url(#a)"/></g></g><rect width="31.31" height="124.26" transform="translate(222.21 569.24)" fill="#535461"/><rect width="31.31" height="5.87" transform="translate(222.21 586.85)" fill="#4285f4"/><rect width="31.31" height="5.87" transform="translate(222.21 670.99)" fill="#4285f4"/><rect width="7.83" height="124.26" transform="translate(245.69 569.24)" opacity="0.1"/><rect width="31.31" height="124.26" transform="translate(255.47 569.24)" fill="#535461"/><rect width="31.31" height="5.87" transform="translate(255.47 586.85)" fill="#4285f4"/><rect width="31.31" height="5.87" transform="translate(255.47 670.99)" fill="#4285f4"/><rect width="7.83" height="124.26" transform="translate(278.95 569.24)" opacity="0.1"/><rect width="31.31" height="124.26" transform="translate(286.915 573.459) rotate(-14.93)" fill="#535461"/><rect width="31.31" height="5.87" transform="translate(291.457 590.476) rotate(-14.93)" fill="#4285f4"/><rect width="31.31" height="5.87" transform="translate(313.141 671.776) rotate(-14.93)" fill="#4285f4"/><rect width="7.83" height="124.26" transform="translate(309.617 567.412) rotate(-14.93)" opacity="0.1"/><rect width="31.31" height="124.26" transform="translate(598.17 693.5) rotate(180)" fill="#535461"/><rect width="31.31" height="5.87" transform="translate(598.17 592.73) rotate(180)" fill="#4285f4"/><rect width="31.31" height="5.87" transform="translate(598.17 676.87) rotate(180)" fill="#4285f4"/><rect width="7.83" height="124.26" transform="translate(574.69 693.5) rotate(180)" opacity="0.1"/><rect width="31.31" height="124.26" transform="translate(564.91 693.5) rotate(180)" fill="#535461"/><rect width="31.31" height="5.87" transform="translate(564.91 592.73) rotate(180)" fill="#4285f4"/><rect width="31.31" height="5.87" transform="translate(564.91 676.87) rotate(180)" fill="#4285f4"/><rect width="7.83" height="124.26" transform="translate(541.43 693.5) rotate(180)" opacity="0.1"/><g opacity="0.7"><path d="M964.86,721.52H908.94l.74-6.29c15.8-14.18,26-52,26-52a5.244,5.244,0,0,0-.67.14c-9.3,1.87-15.86,5.68-20.47,10.25l2-16.73c29.19-6.29,40.76-44.9,40.76-44.9-18.63,4.13-30.24,10.53-37.45,16.59L922.69,604c19.73,6.77,40.16-29.21,40.16-29.21l-.78-.16.38-.25-.58.21c-21.81-4.7-33.47,7.77-37.26,12.95l.28-2.41q-.87,2.28-1.68,4.54h0v.06q-2.28,6.28-4.24,12.4h0q-1.68,5.23-3.14,10.34h0s-.9-22-24.07-27.76c0,0,2.43,47.93,20.79,40.08h0q-2.55,10.38-4.29,20.13h0q-1.15,6.34-2,12.39l-.11.12.11-.09v.32h0q-.77,5.46-1.32,10.64c.36-6.65-.86-25.88-23.51-44,0,0-30.09,52.93,21.23,63.34l.34.29-.08-.24.47.1.21-2.72a285.233,285.233,0,0,0,.18,34.05h0c.05.78.11,1.54.16,2.28H847.39c-21.57,44.63,12,69.08,12,69.08h92.69C988,745.15,964.86,721.52,964.86,721.52ZM904.61,670.8Z" transform="translate(-206.42 -85)" fill="url(#k)"/></g><path d="M905.8,738.47s-14.67-64.09,17.76-146.72" transform="translate(-206.42 -85)" fill="none" stroke="#535461" stroke-miterlimit="10" stroke-width="3" opacity="0.6"/><path d="M848.65,719.16H962.17s22.39,28.57-12.36,71H860.24S827.81,760.86,848.65,719.16Z" transform="translate(-206.42 -85)" fill="#4285f4"/><path d="M921.93,596s11.28-20.08,38.31-13.9c0,0-22.34,38-42.44,25.58Z" transform="translate(-206.42 -85)" fill="#4db6ac"/><path d="M914.77,617.3s-.87-20.53-23.26-25.94c0,0,2.35,44.79,20.09,37.45Z" transform="translate(-206.42 -85)" fill="#4db6ac"/><path d="M907.45,647.63s4.13-21.51,47.38-30.78c0,0-13.79,44.49-49.36,42.71Z" transform="translate(-206.42 -85)" fill="#4db6ac"/><path d="M904,671.77s4.55-22.49-22.48-43.34c0,0-29.37,49.93,21.22,59.33Z" transform="translate(-206.42 -85)" fill="#4db6ac"/><path d="M903.14,702.69S900,670.9,934,664.72c0,0-12.41,44.39-30.91,52.31Z" transform="translate(-206.42 -85)" fill="#4db6ac"/><path d="M918.15,608s29.34-22.39,41.7-26.25" transform="translate(-206.42 -85)" fill="none" stroke="#535461" stroke-miterlimit="10" stroke-width="1" opacity="0.3"/><path d="M905.41,659.32s35.52-37.84,49.42-42.47" transform="translate(-206.42 -85)" fill="none" stroke="#535461" stroke-miterlimit="10" stroke-width="1" opacity="0.3"/><path d="M891.51,591.37s21.62,29.34,20.08,37.07" transform="translate(-206.42 -85)" fill="none" stroke="#535461" stroke-miterlimit="10" stroke-width="1" opacity="0.3"/><path d="M881.47,628.43s11.58,52.51,20.85,59.46" transform="translate(-206.42 -85)" fill="none" stroke="#535461" stroke-miterlimit="10" stroke-width="1" opacity="0.3"/><path d="M903.09,717.23s18.53-51,30.89-52.51" transform="translate(-206.42 -85)" fill="none" stroke="#535461" stroke-miterlimit="10" stroke-width="1" opacity="0.3"/><g opacity="0.1"><path d="M962.17,719.16H848.65c-.26.52-.5,1-.75,1.54H958.3s21.84,27.88-11.12,69.5h2.62C984.56,747.73,962.17,719.16,962.17,719.16Z" transform="translate(-206.42 -85)"/></g><rect width="787.17" height="26.68" transform="translate(0 692.4)" fill="#e0e0e0"/><rect width="720.46" height="10.92" transform="translate(33.35 719.08)" fill="#e0e0e0"/><rect width="720.46" height="3.64" transform="translate(33.35 719.08)" opacity="0.1"/><g transform="translate(262.126 -212.253)"><path d="M108.4,0h6.688V6.629h6.164V0h6.688V20.063h-6.688V13.375h-6.106v6.688H108.4M136.778,6.688h-5.9V0H149.4V6.688h-5.932V20.063h-6.688M152.334,0h7.007l4.3,7.066L167.948,0h7.007V20.063h-6.688V10.119l-4.681,7.211-4.681-7.211v9.944h-6.571M178.27,0h6.688V13.433h9.479v6.629H178.27" transform="translate(150.612 246.382)"/><path d="M84.2,208.3,74.6,100.6H180.089l-9.6,107.641L127.257,220.22" transform="translate(174.585 175.033)" fill="#e44d26"/><path d="M256,232.622V131h43.12l-8.229,91.881" transform="translate(45.929 153.472)" fill="#f16529"/><path d="M142,176.3h33.147v13.2H156.48l1.221,13.52h17.446v13.172H145.605m.582,6.629h13.259l.93,10.555,14.771,3.954v13.782l-27.1-7.56" transform="translate(126.782 121.343)" fill="#ebebeb"/><path d="M288.889,176.3H255.8v13.2h31.868m-1.192,13.52H255.8v13.2h16.283l-1.541,17.155L255.8,237.331v13.724l27.041-7.5" transform="translate(46.071 121.343)" fill="#fff"/></g><g transform="translate(388.047 3.827)"><g transform="translate(193.633 276.362)"><path d="M190.687,100.62,180.114,219.062l-47.525,13.176L85.195,219.081,74.633,100.62Z" transform="translate(-74.633 -68.427)" fill="#264de4"/><path d="M294.4,232.108l9.035-101.214H256V242.755Z" transform="translate(-197.973 -89.015)" fill="#2965f1"/><path d="M150.31,268.217l1.3,14.529h32.513V268.217Z" transform="translate(-126.098 -182.403)" fill="#ebebeb"/><path d="M178.563,176.3H142.132l1.321,14.529h35.11Z" transform="translate(-120.536 -119.898)" fill="#ebebeb"/><path d="M188.272,367.389V352.273l-.064.017-16.181-4.369-1.034-11.587H156.409l2.035,22.812,29.761,8.262Z" transform="translate(-130.245 -228.726)" fill="#ebebeb"/><path d="M160,0h17.6V7.359H167.359v7.359H177.6v7.359H160Z" transform="translate(-132.687)"/><path d="M226,0h17.6V6.4H233.359v1.28H243.6V22.4H226V15.677h10.238V14.4H226Z" transform="translate(-177.571)"/><path d="M292,0h17.6V6.4H299.359v1.28H309.6V22.4H292V15.677h10.238V14.4H292Z" transform="translate(-222.455)"/><path d="M273.734,220.24l-1.686,18.843-16.2,4.374v15.115l29.785-8.255.219-2.455,3.414-38.249.354-3.9,2.623-29.407H255.843v14.529h20.472l-1.322,14.878h-19.15V220.24Z" transform="translate(-197.866 -119.898)" fill="#fff"/></g></g><text transform="translate(118 95)" font-size="45" font-family="Metropolis-ExtraBold, Metropolis" font-weight="800"><tspan x="0" y="0">UI Design</tspan></text></g><g transform="translate(1586.552 4738.398)"><path d="M585,276.09H799.246V490.32H585Z" transform="translate(-909.076 -324.17)" fill="#f7df1e"/><path d="M654.21,468.747l14.681-8.886c2.836,5.022,5.409,9.272,11.59,9.272,5.926,0,9.658-2.318,9.658-11.328v-61.3h18.026v61.544c0,18.668-10.934,27.167-26.912,27.167-14.418,0-22.786-7.472-27.036-16.481m63.738-1.932,14.673-8.5c3.863,6.313,8.886,10.934,17.771,10.934,7.472,0,12.232-3.732,12.232-8.886,0-6.181-4.891-8.368-13.121-11.976l-4.5-1.932c-13-5.533-21.635-12.487-21.635-27.167,0-13.522,10.3-23.821,26.395-23.821,11.459,0,19.681,3.995,25.622,14.418L761.356,418.9c-3.091-5.54-6.436-7.727-11.59-7.727-5.277,0-8.631,3.346-8.631,7.727,0,5.409,3.346,7.6,11.072,10.934l4.5,1.932c15.308,6.56,23.953,13.259,23.953,28.326,0,16.226-12.749,25.112-29.886,25.112-16.765,0-27.554-8.018-32.8-18.413" transform="translate(-910.975 -339.711)"/></g><g transform="translate(1113.031 4503.34)"><path d="M378.215,550.42H358.41v6.963h2.2v3.482h15.4v-3.482h2.2Z" transform="translate(-317.417 -487.465)" fill="url(#a)"/><path d="M427.911,250.816v23.85c2.371.711,3.41,1.439,3.993,2.989a7.5,7.5,0,0,1,.249,4.346,3.474,3.474,0,0,1-2.934,2.952,7.151,7.151,0,0,1-3.249.114c-2.587-.525-3.947-2.288-3.947-5.211,0-2.8.961-4.282,3.6-5.165v-4.479l-.114-19.511L406.09,279.582s9.3,7.77,12.7,22.767h15.8s4.757-17.41,12.7-21.7Z" transform="translate(-376.349 -236.795)" fill="url(#a)"/><path d="M437.4,261.88v22.132a6.291,6.291,0,1,1-3.148.271v-22.4L416.41,289.164A45.986,45.986,0,0,1,429,312.251h13.645s5.246-17.843,12.593-22.037Z" transform="translate(-385.488 -246.697)" fill="#eceff1"/><rect width="41.975" height="2.099" transform="translate(6.788 3.641)" fill="#eceff1"/><rect width="41.975" height="2.099" transform="translate(54.011 3.641)" fill="#eceff1"/><rect width="14.692" height="5.246" transform="translate(43.517 67.652)" fill="#4285f4"/><rect width="7.998" height="7.998" transform="translate(47.341 0.13)" fill="url(#n)"/><rect width="7.345" height="7.345" transform="translate(47.714 0.492)"/><circle cx="4.689" cy="4.689" r="4.689" fill="url(#o)"/><circle cx="4.689" cy="4.689" r="4.689" transform="translate(94.46)" fill="url(#o)"/><circle cx="4.198" cy="4.198" r="4.198" transform="translate(0.492 0.492)" fill="#4285f4"/><circle cx="4.198" cy="4.198" r="4.198" transform="translate(94.937 0.492)" fill="#4285f4"/><rect width="18.889" height="6.296" transform="translate(41.418 63.455)" fill="#4285f4"/><rect width="18.889" height="6.296" transform="translate(41.418 63.455)" opacity="0.2"/></g></g></svg>